<svg xmlns="http://www.w3.org/2000/svg" xmlns:xlink="http://www.w3.org/1999/xlink" width="114.4" height="107.1" viewBox="0 0 114.4 107.1">
  <defs>
    <radialGradient id="New_Gradient_Swatch_1" data-name="New Gradient Swatch 1" cx="250.27" cy="312.24" r="14.56" gradientTransform="translate(-317.3 6) rotate(-45)" gradientUnits="userSpaceOnUse">
      <stop offset="0" stop-color="#00ba64"/>
      <stop offset="0.23" stop-color="#00b662"/>
      <stop offset="0.45" stop-color="#00ab5c"/>
      <stop offset="0.66" stop-color="#009751"/>
      <stop offset="0.87" stop-color="#007c43"/>
      <stop offset="1" stop-color="#006838"/>
    </radialGradient>
    <radialGradient id="New_Gradient_Swatch_1-2" cx="216.99" cy="278.96" r="14.56" gradientTransform="translate(-316.7 13.4) rotate(-45)" xlink:href="#New_Gradient_Swatch_1"/>
    <radialGradient id="New_Gradient_Swatch_1-3" cx="233.63" cy="295.6" r="14.56" gradientTransform="translate(-317 9.7) rotate(-45)" xlink:href="#New_Gradient_Swatch_1"/>
    <radialGradient id="New_Gradient_Swatch_1-4" cx="233.63" cy="340.32" r="23.54" gradientTransform="matrix(0.59, -0.81, 0.81, 0.59, -319.26, 68.79)" xlink:href="#New_Gradient_Swatch_1"/>
    <radialGradient id="New_Gradient_Swatch_1-5" cx="233.63" cy="250.89" r="23.54" gradientTransform="matrix(0.59, -0.81, 0.81, 0.59, -319.26, 68.79)" xlink:href="#New_Gradient_Swatch_1"/>
    <radialGradient id="New_Gradient_Swatch_1-6" cx="205.55" cy="315.36" r="22.23" gradientTransform="matrix(0.59, -0.81, 0.81, 0.59, -319.26, 68.79)" xlink:href="#New_Gradient_Swatch_1"/>
    <radialGradient id="New_Gradient_Swatch_1-7" cx="270.02" cy="307.04" r="22.23" gradientTransform="matrix(0.59, -0.81, 0.81, 0.59, -319.26, 68.79)" xlink:href="#New_Gradient_Swatch_1"/>
    <radialGradient id="New_Gradient_Swatch_1-8" cx="261.71" cy="275.84" r="22.23" gradientTransform="matrix(0.59, -0.81, 0.81, 0.59, -319.26, 68.79)" xlink:href="#New_Gradient_Swatch_1"/>
    <radialGradient id="New_Gradient_Swatch_1-9" cx="197.23" cy="284.16" r="22.23" gradientTransform="matrix(0.59, -0.81, 0.81, 0.59, -319.26, 68.79)" xlink:href="#New_Gradient_Swatch_1"/>
    <radialGradient id="New_Gradient_Swatch_1-10" cx="215.95" cy="317.44" r="15.6" gradientTransform="matrix(0.59, -0.81, 0.81, 0.59, -319.26, 68.79)" xlink:href="#New_Gradient_Swatch_1"/>
  </defs>
  <title>knot2</title>
  <g id="Layer_2" data-name="Layer 2">
    <g id="Layer_1-2" data-name="Layer 1">
      <g>
        <rect x="77.5" y="32.2" width="5.9" height="35.29" transform="translate(-6.8 13.2) rotate(-9)" fill="url(#New_Gradient_Swatch_1)"/>
        <rect x="31" y="39.6" width="5.9" height="35.29" transform="translate(-8.5 6) rotate(-9)" fill="url(#New_Gradient_Swatch_1-2)"/>
        <rect x="39.6" y="50.6" width="35.3" height="5.88" transform="translate(-7.7 9.6) rotate(-9)" fill="url(#New_Gradient_Swatch_1-3)"/>
        <polygon points="114.4 95.1 109.8 66 66.2 72.9 67.2 78.8 104.9 72.8 107.7 90.2 90.3 93 88 78.4 82.1 79.4 85.4 99.7 114.4 95.1" fill="url(#New_Gradient_Swatch_1-4)"/>
        <polygon points="0 12 4.6 41 48.2 34.1 47.3 28.3 9.5 34.3 6.7 16.9 24.2 14.1 26.5 28.6 32.3 27.7 29.1 7.4 0 12" fill="url(#New_Gradient_Swatch_1-5)"/>
        <polygon points="35.7 86.7 38.9 107.1 67.9 102.4 61 58.9 55.2 59.8 61.2 97.6 43.8 100.3 41.5 85.8 35.7 86.7" fill="url(#New_Gradient_Swatch_1-6)"/>
        <polygon points="86.7 51.8 107 48.6 102.4 19.6 58.9 26.5 59.8 32.3 97.6 26.3 100.3 43.7 85.8 46 86.7 51.8" fill="url(#New_Gradient_Swatch_1-7)"/>
        <polygon points="78.8 20.3 75.5 0 46.5 4.6 53.4 48.2 59.2 47.3 53.2 9.5 70.6 6.7 72.9 21.3 78.8 20.3" fill="url(#New_Gradient_Swatch_1-8)"/>
        <polygon points="27.7 55.2 7.4 58.4 12 87.5 55.5 80.6 54.6 74.8 16.9 80.8 14.1 63.3 28.6 61 27.7 55.2" fill="url(#New_Gradient_Swatch_1-9)"/>
        <line x1="67.9" y1="102.4" x2="61" y2="58.9" fill="url(#New_Gradient_Swatch_1-10)"/>
      </g>
    </g>
  </g>
</svg>
