<svg xmlns="http://www.w3.org/2000/svg" xmlns:xlink="http://www.w3.org/1999/xlink" width="236.3" height="58.9" viewBox="0 0 236.3 58.9">
  <defs>
    <radialGradient id="New_Gradient_Swatch_1" data-name="New Gradient Swatch 1" cx="597.22" cy="-373.55" r="8.58" gradientTransform="translate(-114.8 715.9) rotate(-45)" gradientUnits="userSpaceOnUse">
      <stop offset="0" stop-color="#00ba64"/>
      <stop offset="0.23" stop-color="#00b662"/>
      <stop offset="0.45" stop-color="#00ab5c"/>
      <stop offset="0.66" stop-color="#009751"/>
      <stop offset="0.87" stop-color="#007c43"/>
      <stop offset="1" stop-color="#006838"/>
    </radialGradient>
    <radialGradient id="New_Gradient_Swatch_1-2" cx="577.62" cy="-393.16" r="8.58" xlink:href="#New_Gradient_Swatch_1"/>
    <radialGradient id="New_Gradient_Swatch_1-3" cx="587.42" cy="-383.36" r="8.58" xlink:href="#New_Gradient_Swatch_1"/>
    <radialGradient id="New_Gradient_Swatch_1-4" cx="587.42" cy="-357.01" r="13.87" xlink:href="#New_Gradient_Swatch_1"/>
    <radialGradient id="New_Gradient_Swatch_1-5" cx="587.42" cy="-409.7" r="13.87" xlink:href="#New_Gradient_Swatch_1"/>
    <radialGradient id="New_Gradient_Swatch_1-6" cx="570.88" cy="-371.72" r="13.1" xlink:href="#New_Gradient_Swatch_1"/>
    <radialGradient id="New_Gradient_Swatch_1-7" cx="608.86" cy="-376.62" r="13.1" xlink:href="#New_Gradient_Swatch_1"/>
    <radialGradient id="New_Gradient_Swatch_1-8" cx="603.96" cy="-395" r="13.1" xlink:href="#New_Gradient_Swatch_1"/>
    <radialGradient id="New_Gradient_Swatch_1-9" cx="565.98" cy="-390.09" r="13.1" xlink:href="#New_Gradient_Swatch_1"/>
    <radialGradient id="New_Gradient_Swatch_1-10" cx="577" cy="-370.49" r="9.19" xlink:href="#New_Gradient_Swatch_1"/>
  </defs>
  <title>Asset 1</title>
  <g id="Layer_2" data-name="Layer 2">
    <g id="Layer_1-2" data-name="Layer 1">
      <g>
        <g>
          <path d="M76.5,40.9,79,38.1a12.5,12.5,0,0,0,8.8,4c4.2,0,6.6-2.1,6.6-5.2s-2.3-4.3-5.3-5.6l-4.6-2c-3-1.3-6.5-3.5-6.5-8.2s4.2-8.4,10-8.4a13.2,13.2,0,0,1,9.4,3.9l-2.2,2.6a10.2,10.2,0,0,0-7.2-3c-3.5,0-5.9,1.8-5.9,4.7s2.8,4.2,5.3,5.3L92,28.1c3.7,1.6,6.6,3.8,6.6,8.5s-4.1,9.1-10.8,9.1A15.4,15.4,0,0,1,76.5,40.9Z" fill="#603913"/>
          <path d="M101.5,21.5h3.3l.3,2.7h.1c2.1-1.8,4.8-3.3,7.5-3.3,6.1,0,9.3,4.7,9.3,12s-4.8,12.7-10.2,12.7a10.9,10.9,0,0,1-6.6-2.7V55h-4ZM118,32.9c0-5.2-1.7-8.7-6.2-8.7-2,0-4,1.1-6.3,3.2V39.8a9.3,9.3,0,0,0,5.8,2.5C115.1,42.3,118,38.7,118,32.9Z" fill="#603913"/>
          <path d="M125.5,21.5h3.3l.3,4.3h.1c1.6-3,4-4.9,6.7-4.9a5.9,5.9,0,0,1,2.5.5l-.8,3.5a6.6,6.6,0,0,0-2.3-.4c-2,0-4.4,1.5-6,5.4V45.1h-4Z" fill="#603913"/>
          <path d="M140.2,14a2.8,2.8,0,0,1,5.5,0,2.8,2.8,0,0,1-5.5,0Zm.7,7.4h4V45.1h-4Z" fill="#603913"/>
          <path d="M149.1,49.6c0-2,1.3-3.9,3.4-5.3V44a4.4,4.4,0,0,1-2.1-3.8,5.5,5.5,0,0,1,2.6-4.4v-.2a8.3,8.3,0,0,1-3.1-6.4c0-5.1,4.1-8.4,8.9-8.4a9.4,9.4,0,0,1,3.3.6h8.2v3.1h-4.9a6.8,6.8,0,0,1,1.9,4.9c0,5-3.8,8.2-8.6,8.2a8.2,8.2,0,0,1-3.5-.8,3.6,3.6,0,0,0-1.5,2.8c0,1.5,1,2.6,4.2,2.6h4.6c5.5,0,8.2,1.7,8.2,5.6s-4.6,8.2-11.9,8.2C153.1,55.9,149.1,53.6,149.1,49.6Zm17.8-1.2c0-2.2-1.7-2.9-4.8-2.9h-4.1a11.5,11.5,0,0,1-3.1-.4,5,5,0,0,0-2.4,4c0,2.5,2.6,4.1,6.8,4.1S166.9,50.8,166.9,48.4Zm-3.1-19.1c0-3.4-2.2-5.5-5-5.5s-5,2-5,5.5,2.3,5.6,5,5.6S163.8,32.7,163.8,29.3Z" fill="#603913"/>
          <path d="M172.1,49.6c0-2,1.3-3.9,3.4-5.3V44a4.4,4.4,0,0,1-2.1-3.8,5.5,5.5,0,0,1,2.6-4.4v-.2a8.3,8.3,0,0,1-3.1-6.4c0-5.1,4.1-8.4,8.9-8.4a9.4,9.4,0,0,1,3.3.6h8.2v3.1h-4.9a6.8,6.8,0,0,1,1.9,4.9c0,5-3.8,8.2-8.6,8.2a8.2,8.2,0,0,1-3.5-.8,3.6,3.6,0,0,0-1.5,2.8c0,1.5,1,2.6,4.2,2.6h4.6c5.5,0,8.2,1.7,8.2,5.6s-4.6,8.2-11.9,8.2C176.1,55.9,172.1,53.6,172.1,49.6Zm17.8-1.2c0-2.2-1.7-2.9-4.8-2.9h-4.1a11.5,11.5,0,0,1-3.1-.4,5,5,0,0,0-2.4,4c0,2.5,2.6,4.1,6.8,4.1S189.9,50.8,189.9,48.4Zm-3.1-19.1c0-3.4-2.2-5.5-5-5.5s-5,2-5,5.5,2.3,5.6,5,5.6S186.8,32.7,186.8,29.3Z" fill="#603913"/>
          <path d="M194.4,38.9c0-5.1,4.4-7.7,14.5-8.8,0-3-1-5.9-4.9-5.9a12.8,12.8,0,0,0-7,2.5l-1.6-2.8a17.5,17.5,0,0,1,9.3-3.1c5.8,0,8.2,3.8,8.2,9.7V45.1h-3.3l-.3-2.8h-.1c-2.2,1.8-4.9,3.4-7.8,3.4S194.4,43.2,194.4,38.9Zm14.5.3V32.7c-7.9,1-10.6,2.9-10.6,5.9s1.8,3.8,4.2,3.8S206.6,41.3,208.9,39.3Z" fill="#603913"/>
          <path d="M217.4,21.5h3.3l.3,3.4h.1c2.2-2.2,4.7-4,7.9-4,4.9,0,7.2,3.2,7.2,9.2V45.1h-4V30.6c0-4.4-1.4-6.3-4.5-6.3s-4.1,1.3-6.5,3.6V45.1h-4Z" fill="#603913"/>
        </g>
        <g>
          <rect x="41.6" y="19.1" width="3.5" height="20.79" fill="url(#New_Gradient_Swatch_1)"/>
          <rect x="13.9" y="19.1" width="3.5" height="20.79" fill="url(#New_Gradient_Swatch_1-2)"/>
          <rect x="19.1" y="27.7" width="20.8" height="3.47" fill="url(#New_Gradient_Swatch_1-3)"/>
          <polygon points="58.9 58.9 58.9 41.6 32.9 41.6 32.9 45.1 55.4 45.1 55.4 55.4 45.1 55.4 45.1 46.8 41.6 46.8 41.6 58.9 58.9 58.9" fill="url(#New_Gradient_Swatch_1-4)"/>
          <polygon points="0 0 0 17.3 26 17.3 26 13.9 3.5 13.9 3.5 3.5 13.9 3.5 13.9 12.1 17.3 12.1 17.3 0 0 0" fill="url(#New_Gradient_Swatch_1-5)"/>
          <polygon points="13.9 46.8 13.9 58.9 31.2 58.9 31.2 32.9 27.7 32.9 27.7 55.4 17.3 55.4 17.3 46.8 13.9 46.8" fill="url(#New_Gradient_Swatch_1-6)"/>
          <polygon points="46.8 31.2 58.9 31.2 58.9 13.9 32.9 13.9 32.9 17.3 55.4 17.3 55.4 27.7 46.8 27.7 46.8 31.2" fill="url(#New_Gradient_Swatch_1-7)"/>
          <polygon points="45.1 12.1 45.1 0 27.7 0 27.7 26 31.2 26 31.2 3.5 41.6 3.5 41.6 12.1 45.1 12.1" fill="url(#New_Gradient_Swatch_1-8)"/>
          <polygon points="12.1 27.7 0 27.7 0 45.1 26 45.1 26 41.6 3.5 41.6 3.5 31.2 12.1 31.2 12.1 27.7" fill="url(#New_Gradient_Swatch_1-9)"/>
          <line x1="31.2" y1="58.9" x2="31.2" y2="32.9" fill="url(#New_Gradient_Swatch_1-10)"/>
        </g>
      </g>
    </g>
  </g>
</svg>
